<?xml version="1.0" encoding="utf-8"?>
<!-- Generator: Adobe Illustrator 22.0.1, SVG Export Plug-In . SVG Version: 6.00 Build 0)  -->
<svg version="1.1" id="Layer_1" xmlns="http://www.w3.org/2000/svg" xmlns:xlink="http://www.w3.org/1999/xlink" x="0px" y="0px"
	 viewBox="0 0 483.5 101" style="enable-background:new 0 0 483.5 101;" xml:space="preserve">
<style type="text/css">
	.st0{fill:#FFFFFF;stroke:#000000;stroke-width:0.5;stroke-miterlimit:10;}
	.st1{fill:none;stroke:#000000;stroke-width:0.5;stroke-miterlimit:10;}
	.st2{fill:none;stroke:#000000;stroke-miterlimit:10;}
	.st3{font-family:'ArialMT';}
	.st4{font-size:9px;}
	.st5{fill:none;stroke:#000000;stroke-width:0.5;stroke-linecap:square;stroke-miterlimit:10;}
	.st6{fill:none;stroke:#000000;stroke-width:0.25;stroke-linecap:square;stroke-miterlimit:10;}
</style>
<g>
	<rect x="13.3" y="17.7" class="st0" width="24.9" height="24.9"/>
	<rect x="38.2" y="17.7" class="st0" width="24.9" height="24.9"/>
	<rect x="63.1" y="17.7" class="st0" width="24.9" height="24.9"/>
	<rect x="13.3" y="42.6" class="st0" width="24.9" height="24.9"/>
	<rect x="38.2" y="42.6" class="st0" width="24.9" height="24.9"/>
	<rect x="63.1" y="42.6" class="st0" width="24.9" height="24.9"/>
	<rect x="13.3" y="67.5" class="st0" width="24.9" height="24.9"/>
	<rect x="38.2" y="67.5" class="st0" width="24.9" height="24.9"/>
	<rect x="63.1" y="67.5" class="st0" width="24.9" height="24.9"/>
</g>
<g>
	<rect x="161.7" y="16.6" class="st0" width="25.6" height="25.6"/>
	<rect x="187.3" y="16.6" class="st0" width="25.6" height="25.6"/>
	<rect x="213" y="16.6" class="st0" width="25.6" height="25.6"/>
	<rect x="161.7" y="42.2" class="st0" width="25.6" height="25.6"/>
	<rect x="187.3" y="42.2" class="st0" width="25.6" height="25.6"/>
	<rect x="213" y="42.2" class="st0" width="25.6" height="25.6"/>
	<rect x="161.7" y="67.9" class="st0" width="25.6" height="25.6"/>
	<rect x="187.3" y="67.9" class="st0" width="25.6" height="25.6"/>
	<rect x="213" y="67.9" class="st0" width="25.6" height="25.6"/>
	<line class="st1" x1="238.6" y1="16.6" x2="161.7" y2="93.5"/>
	<line class="st1" x1="187.3" y1="93.5" x2="238.6" y2="42.2"/>
	<line class="st1" x1="161.7" y1="67.9" x2="213" y2="16.6"/>
	<line class="st1" x1="213" y1="93.5" x2="238.6" y2="67.9"/>
	<line class="st1" x1="161.7" y1="42.2" x2="187.3" y2="16.6"/>
</g>
<g>
	<g>
		<g>
			<line class="st2" x1="98.1" y1="55" x2="146.7" y2="55"/>
			<g>
				<path d="M152.7,55c-2.8,1.1-6.4,2.9-8.5,4.8l1.7-4.8l-1.7-4.8C146.3,52.2,149.9,54,152.7,55z"/>
			</g>
		</g>
	</g>
	<text transform="matrix(1 0 0 1 100.1373 49.1665)" class="st3 st4">subdivision</text>
</g>
<g>
	<g>
		<g>
			<line class="st2" x1="344.4" y1="55" x2="393" y2="55"/>
			<g>
				<path d="M399,55c-2.8,1.1-6.4,2.9-8.5,4.8l1.7-4.8l-1.7-4.8C392.6,52.2,396.2,54,399,55z"/>
			</g>
		</g>
	</g>
	<text transform="matrix(1 0 0 1 346.4117 49.1665)" class="st3 st4">subdivision</text>
</g>
<g>
	<text transform="matrix(1 0 0 1 23.1359 8.4998)" class="st3 st4">regular_mesh</text>
</g>
<g>
	<text transform="matrix(1 0 0 1 154.8797 8.4998)" class="st3 st4">regular_simplex_mesh</text>
</g>
<g>
	<text transform="matrix(1 0 0 1 274.4415 8.4998)" class="st3 st4">regular_mesh</text>
</g>
<g>
	<text transform="matrix(1 0 0 1 391.1853 8.4998)" class="st3 st4">regular_simplex_mesh</text>
</g>
<g>
	<line class="st5" x1="305.5" y1="11.7" x2="339.1" y2="26.6"/>
	<line class="st5" x1="307.5" y1="38.2" x2="339.8" y2="54.2"/>
	<line class="st5" x1="309.9" y1="62.2" x2="340.8" y2="79.1"/>
	<line class="st5" x1="285.6" y1="18.9" x2="319" y2="34.9"/>
	<line class="st5" x1="288.6" y1="45.9" x2="320.7" y2="63"/>
	<line class="st5" x1="291.8" y1="70.4" x2="322.6" y2="88.4"/>
	<g>
		<line class="st5" x1="264.3" y1="26.6" x2="305.5" y2="11.7"/>
		<line class="st5" x1="309.9" y1="62.2" x2="305.5" y2="11.7"/>
		<line class="st5" x1="272.6" y1="79.1" x2="309.9" y2="62.2"/>
		<line class="st5" x1="264.3" y1="26.6" x2="272.6" y2="79.1"/>
		<line class="st5" x1="285.6" y1="18.9" x2="291.8" y2="70.4"/>
		<line class="st5" x1="268.4" y1="54.2" x2="307.8" y2="38.1"/>
		<line class="st5" x1="280.2" y1="34.9" x2="321.7" y2="18.9"/>
		<line class="st5" x1="324.8" y1="70.4" x2="321.7" y2="18.9"/>
		<line class="st5" x1="287.3" y1="88.4" x2="324.8" y2="70.4"/>
		<line class="st5" x1="280.2" y1="34.9" x2="287.3" y2="88.4"/>
		<line class="st5" x1="301.7" y1="26.6" x2="306.7" y2="79.1"/>
		<line class="st5" x1="283.7" y1="63" x2="323.3" y2="45.8"/>
		<line class="st5" x1="297.3" y1="43.8" x2="339.1" y2="26.6"/>
		<line class="st5" x1="340.8" y1="79.1" x2="339.1" y2="26.6"/>
		<line class="st5" x1="303.1" y1="98.4" x2="340.8" y2="79.1"/>
		<line class="st5" x1="297.3" y1="43.8" x2="303.1" y2="98.4"/>
		<line class="st5" x1="319" y1="34.9" x2="322.6" y2="88.4"/>
		<line class="st5" x1="300.1" y1="72.6" x2="340" y2="54.1"/>
	</g>
	<line class="st5" x1="264.3" y1="26.6" x2="297.3" y2="43.8"/>
	<line class="st5" x1="268.4" y1="54.2" x2="300.1" y2="72.6"/>
	<line class="st5" x1="272.6" y1="79.1" x2="303.1" y2="98.4"/>
</g>
<g>
	<line class="st6" x1="442.3" y1="38.2" x2="456.4" y2="18.9"/>
	<line class="st6" x1="444.6" y1="62.2" x2="473.8" y2="26.6"/>
	<line class="st6" x1="459.5" y1="70.4" x2="474.5" y2="54.2"/>
	<line class="st5" x1="440.2" y1="11.7" x2="473.8" y2="26.6"/>
	<line class="st5" x1="442.3" y1="38.2" x2="474.5" y2="54.2"/>
	<line class="st5" x1="444.6" y1="62.2" x2="475.5" y2="79.1"/>
	<line class="st5" x1="420.3" y1="18.9" x2="453.7" y2="34.9"/>
	<line class="st5" x1="423.4" y1="45.9" x2="455.4" y2="63"/>
	<line class="st5" x1="426.6" y1="70.4" x2="457.3" y2="88.4"/>
	<g>
		<line class="st5" x1="399" y1="26.6" x2="440.2" y2="11.7"/>
		<line class="st5" x1="444.6" y1="62.2" x2="440.2" y2="11.7"/>
		<line class="st5" x1="407.3" y1="79.1" x2="444.6" y2="62.2"/>
		<line class="st5" x1="399" y1="26.6" x2="407.3" y2="79.1"/>
		<line class="st5" x1="420.3" y1="18.9" x2="426.6" y2="70.4"/>
		<line class="st5" x1="403.2" y1="54.2" x2="442.5" y2="38.1"/>
		<line class="st5" x1="414.9" y1="34.9" x2="456.4" y2="18.9"/>
		<line class="st5" x1="459.5" y1="70.4" x2="456.4" y2="18.9"/>
		<line class="st5" x1="422.1" y1="88.4" x2="459.5" y2="70.4"/>
		<line class="st5" x1="414.9" y1="34.9" x2="422.1" y2="88.4"/>
		<line class="st5" x1="436.4" y1="26.6" x2="441.4" y2="79.1"/>
		<line class="st5" x1="418.4" y1="63" x2="458" y2="45.8"/>
		<line class="st5" x1="432" y1="43.8" x2="473.8" y2="26.6"/>
		<line class="st5" x1="475.5" y1="79.1" x2="473.8" y2="26.6"/>
		<line class="st5" x1="437.8" y1="98.4" x2="475.5" y2="79.1"/>
		<line class="st5" x1="432" y1="43.8" x2="437.8" y2="98.4"/>
		<line class="st5" x1="453.7" y1="34.9" x2="457.3" y2="88.4"/>
		<line class="st5" x1="434.9" y1="72.6" x2="474.7" y2="54.1"/>
	</g>
	<line class="st5" x1="399" y1="26.6" x2="432" y2="43.8"/>
	<line class="st5" x1="403.2" y1="54.2" x2="434.9" y2="72.6"/>
	<line class="st5" x1="407.3" y1="79.1" x2="437.8" y2="98.4"/>
	<line class="st6" x1="423.4" y1="45.9" x2="436.4" y2="26.6"/>
	<line class="st6" x1="426.6" y1="70.4" x2="453.7" y2="34.9"/>
	<line class="st6" x1="441.4" y1="79.1" x2="455.4" y2="63"/>
	<line class="st6" x1="426.6" y1="70.4" x2="442.3" y2="38.2"/>
	<line class="st6" x1="407.3" y1="79.1" x2="440.2" y2="11.7"/>
	<line class="st6" x1="403.2" y1="54.2" x2="420.3" y2="18.9"/>
	<line class="st6" x1="441.4" y1="79.1" x2="457.8" y2="45.9"/>
	<line class="st6" x1="422.1" y1="88.4" x2="456.4" y2="18.9"/>
	<line class="st6" x1="418.4" y1="63" x2="436.4" y2="26.6"/>
	<line class="st6" x1="457.3" y1="88.4" x2="474.5" y2="54.2"/>
	<line class="st6" x1="437.8" y1="98.4" x2="473.8" y2="26.6"/>
	<line class="st6" x1="434.9" y1="72.6" x2="453.7" y2="34.9"/>
	<line class="st6" x1="426.6" y1="70.4" x2="459.5" y2="70.4"/>
	<line class="st6" x1="407.3" y1="79.1" x2="475.5" y2="79.1"/>
	<line class="st6" x1="422.1" y1="88.4" x2="457.3" y2="88.4"/>
	<line class="st6" x1="423.6" y1="45.8" x2="458" y2="45.8"/>
	<line class="st6" x1="403.4" y1="54.1" x2="474.7" y2="54.1"/>
	<line class="st6" x1="418.6" y1="63" x2="455.6" y2="63"/>
	<line class="st6" x1="420.3" y1="18.9" x2="456.4" y2="18.9"/>
	<line class="st6" x1="399" y1="26.6" x2="473.8" y2="26.6"/>
	<line class="st6" x1="414.9" y1="34.9" x2="453.7" y2="34.9"/>
	<line class="st6" x1="403.2" y1="54.2" x2="414.9" y2="34.9"/>
	<line class="st6" x1="407.3" y1="79.1" x2="432" y2="43.8"/>
	<line class="st6" x1="422.1" y1="88.4" x2="434.9" y2="72.6"/>
</g>
</svg>
